<svg width="19" height="19" viewBox="0 0 19 19" fill="none" xmlns="http://www.w3.org/2000/svg">
<path d="M1.18 7.32H6.26V8.7H1.18V7.32ZM0.38 1.96H7.18V9.46H5.74V3.36H0.38V1.96ZM0.38 7.32H1.84V13.7C1.84 14.34 1.98 14.44 2.82 14.44C3.2 14.44 5.14 14.44 5.64 14.44C6.36 14.44 6.48 14.12 6.56 12.08C6.88 12.34 7.5 12.58 7.92 12.68C7.74 15.22 7.32 15.86 5.76 15.86C5.36 15.86 3.04 15.86 2.66 15.86C0.88 15.86 0.38 15.42 0.38 13.72V7.32ZM10 3.88H18.24V5.3H10V3.88ZM10.52 0.219999L12.08 0.479999C11.3 4.1 10 7.42 8.26 9.58C7.96 9.32 7.3 8.86 6.92 8.64C8.68 6.66 9.88 3.54 10.52 0.219999ZM15.2 4.44L16.72 4.62C15.6 12.08 13.04 16.24 7.1 18.68C6.94 18.34 6.48 17.68 6.18 17.34C11.9 15.28 14.24 11.36 15.2 4.44ZM10.6 5.16C11.68 10.84 14.02 15.42 18.48 17.3C18.14 17.6 17.66 18.18 17.42 18.6C12.78 16.42 10.44 11.66 9.22 5.42L10.6 5.16Z" fill="white"/>
</svg>
